<?xml version="1.0" encoding="UTF-8" standalone="no"?>
<!-- Created with Inkscape (http://www.inkscape.org/) -->

<svg
   xmlns:dc="http://purl.org/dc/elements/1.1/"
   xmlns:cc="http://creativecommons.org/ns#"
   xmlns:rdf="http://www.w3.org/1999/02/22-rdf-syntax-ns#"
   xmlns:svg="http://www.w3.org/2000/svg"
   xmlns="http://www.w3.org/2000/svg"
   xmlns:sodipodi="http://sodipodi.sourceforge.net/DTD/sodipodi-0.dtd"
   xmlns:inkscape="http://www.inkscape.org/namespaces/inkscape"
   width="533.98035"
   height="179.54851"
   id="svg2"
   version="1.1"
   inkscape:version="0.47pre0 r21549"
   sodipodi:docname="arrow keys.svg"
   inkscape:output_extension="org.inkscape.output.svg.inkscape">
  <defs
     id="defs4">
    <inkscape:perspective
       sodipodi:type="inkscape:persp3d"
       inkscape:vp_x="0 : 526.18109 : 1"
       inkscape:vp_y="0 : 1000 : 0"
       inkscape:vp_z="744.09448 : 526.18109 : 1"
       inkscape:persp3d-origin="372.04724 : 350.78739 : 1"
       id="perspective10" />
    <inkscape:perspective
       id="perspective2884"
       inkscape:persp3d-origin="0.5 : 0.33333333 : 1"
       inkscape:vp_z="1 : 0.5 : 1"
       inkscape:vp_y="0 : 1000 : 0"
       inkscape:vp_x="0 : 0.5 : 1"
       sodipodi:type="inkscape:persp3d" />
    <inkscape:perspective
       id="perspective3039"
       inkscape:persp3d-origin="0.5 : 0.33333333 : 1"
       inkscape:vp_z="1 : 0.5 : 1"
       inkscape:vp_y="0 : 1000 : 0"
       inkscape:vp_x="0 : 0.5 : 1"
       sodipodi:type="inkscape:persp3d" />
  </defs>
  <sodipodi:namedview
     id="base"
     pagecolor="#ffffff"
     bordercolor="#666666"
     borderopacity="1.0"
     inkscape:pageopacity="0.0"
     inkscape:pageshadow="2"
     inkscape:zoom="0.70710678"
     inkscape:cx="268.93387"
     inkscape:cy="321.2961"
     inkscape:document-units="px"
     inkscape:current-layer="layer1"
     showgrid="false"
     inkscape:window-width="1280"
     inkscape:window-height="776"
     inkscape:window-x="0"
     inkscape:window-y="24"
     inkscape:window-maximized="1" />
  <metadata
     id="metadata7">
    <rdf:RDF>
      <cc:Work
         rdf:about="">
        <dc:format>image/svg+xml</dc:format>
        <dc:type
           rdf:resource="http://purl.org/dc/dcmitype/StillImage" />
        <dc:title></dc:title>
      </cc:Work>
    </rdf:RDF>
  </metadata>
  <g
     inkscape:label="Layer 1"
     inkscape:groupmode="layer"
     id="layer1"
     transform="translate(-120.97907,-837.21713)">
    <g
       id="g3851"
       inkscape:export-filename="/home/lrbabe/Desktop/left key.png"
       inkscape:export-xdpi="25.258852"
       inkscape:export-ydpi="25.258852">
      <path
         id="path3075"
         d="m 243.48444,970.09035 c 19.64083,-2.88699 19.37155,-2.28406 20.8383,-46.65675 0.60904,-18.425 1.39437,-41.67098 1.74517,-51.65774 0.61404,-17.48055 0.55667,-18.28906 -1.53846,-21.67905 -1.23538,-1.99888 -3.99746,-4.40167 -6.38858,-5.55755 -4.04081,-1.95335 -6.03565,-2.03785 -49.00105,-2.07559 -30.38609,-0.0267 -46.24734,0.32793 -49.32459,1.10279 -5.78026,1.45549 -10.8866,6.22547 -12.19485,11.39158 -0.55372,2.18656 -1.28867,14.10056 -1.63324,26.47556 -0.34456,12.375 -1.08171,34.31372 -1.63811,48.75271 -0.9609,24.93601 -0.91541,26.47025 0.90691,30.58993 3.34481,7.56149 8.07741,9.16326 32.67264,11.05823 10.67116,0.82217 56.36796,-0.3936 65.55586,-1.74412 z"
         style="fill:#adadad" />
      <path
         id="path3065"
         d="m 129.63172,850.85822 c 12.71148,-18.49623 151.04927,-15.32623 162.44942,-2.80105 11.40014,12.52517 8.06863,147.78735 -3.47312,159.11993 -11.54174,11.3325 -150.64631,13.5371 -159.67178,1.6282 -9.02547,-11.9089 -12.34804,-138.96771 0.69548,-157.94708 z"
         style="fill:#949494" />
      <path
         id="path3077"
         d="m 130.97511,1007.9256 c -5.24068,-4.1315 -6.94648,-31.492 -6.80456,-80.992 0,0 -5.24197,-65.25 10.25803,-75.5 10,-13 73.64103,-11.2554 73.64103,-11.2554 56.59716,-1.6667 83.07706,8.75787 83.34279,9.74197 3.77258,13.97112 10.69215,136.99403 -3.57191,156.36953 -0.99541,1.3521 -0.97801,5.9639 -78.89165,5.8365 -66.26344,-0.1083 -77.64943,-3.3496 -77.97373,-4.2006 z"
         style="fill:#adadad" />
      <path
         id="path3063"
         d="m 143.12525,1002.6604 c 0.88183,-1.8583 1.64833,-4.79379 1.70333,-6.52325 0.0731,-2.29999 0.77141,-3.47776 2.6,-4.38544 2.59082,-1.28603 4.87287,-5.34327 4.95986,-8.81811 0.0275,-1.1 1.08857,-3.29782 2.35785,-4.88405 2.63536,-3.29342 1.80776,-3.21507 23.18229,-2.19468 24.45131,1.16727 46.25781,1.27567 58.20085,0.28932 l 11.20084,-0.92505 4.54916,3.72769 c 2.50203,2.05023 4.54915,4.31026 4.54915,5.02228 0,0.71202 0.89898,2.34532 1.99773,3.62954 1.09875,1.28422 3.01125,3.7604 4.25,5.50262 1.23875,1.74221 4.72727,6.14861 7.75227,9.79203 5.19504,6.257 5.69276,6.5957 8.97655,6.1084 4.39269,-0.6518 7.7873,-3.1706 10.24313,-7.6003 1.63711,-2.9529 1.86249,-4.98184 1.5179,-13.66477 -0.22525,-5.67604 -0.9208,-10.81887 -1.5688,-11.59967 -0.90969,-1.0961 -0.7275,-1.90614 0.83354,-3.70604 1.09872,-1.26683 1.97845,-3.24699 1.95495,-4.40033 -0.0235,-1.15334 0.22295,-25.57258 0.54768,-54.26498 0.63997,-56.54604 0.58448,-57.26163 -4.70978,-60.73057 -1.30454,-0.85476 -5.85933,-2.22137 -10.12177,-3.03691 -4.26243,-0.81554 -9.05294,-2.41066 -10.64557,-3.54471 -7.46659,-5.31668 -7.80881,-5.34591 -59.42794,-5.07582 -53.37291,0.27928 -50.89723,-0.0171 -63.03248,7.54645 -3.9794,2.48025 -7.90657,4.50955 -8.72703,4.50955 -1.72319,0 -5.19442,3.58146 -6.29995,6.5 -0.41667,1.1 -0.89116,9.425 -1.05441,18.5 -0.22213,12.3478 0.0516,17.33597 1.08762,19.82197 0.76145,1.82708 1.83867,3.04124 2.39383,2.69813 0.55516,-0.34311 2.58958,0.63701 4.52093,2.17803 l 3.51154,2.80187 3e-5,26.89822 3e-5,26.89822 -3.47645,10.10178 c -1.91204,5.55598 -4.81051,14.75477 -6.44103,20.44176 -3.51104,12.24592 -3.15925,14.15802 3.12056,16.96202 3.90564,1.7438 4.46052,1.7767 6.09359,0.361 0.98817,-0.8566 2.51817,-3.0779 3.4,-4.9362 z"
         style="fill:#949494" />
      <rect
         rx="23.460155"
         ry="23.460155"
         y="841.78857"
         x="141.88492"
         height="132.57359"
         width="123.90175"
         id="rect3029"
         style="fill:#ffffff;fill-opacity:1;stroke:none" />
      <path
         id="path3073"
         d="m 180.42858,911.03473 c -13.96423,-4.23146 -14,-4.24798 -14,-6.46276 0,-2.35091 0.48799,-2.54444 14.24797,-5.65057 14.46838,-3.26604 16.77772,-3.2307 18.19051,0.5122 l 0,3 14.81214,0 c 12.52622,0 15.14771,-0.40487 15.41355,0 0.29139,0.44378 0.31866,5.42295 0,5.71066 -0.36314,0.32788 -7.95129,-0.32525 -15.97863,0 l -14.24706,0 0,3.44035 c -1.28201,3.67758 -4.70882,3.61051 -18.43848,-0.54988 z"
         style="fill:#adadad" />
    </g>
    <g
       id="g3859"
       transform="matrix(1.0080233,0,0,1,-3.829395,0)"
       inkscape:export-filename="/home/lrbabe/Desktop/right key.png"
       inkscape:export-xdpi="25.258852"
       inkscape:export-ydpi="25.258852">
      <rect
         ry="12.5"
         y="842.07538"
         x="510.54913"
         height="132.57359"
         width="123.90175"
         id="rect3029-8"
         style="fill:#ffffff;fill-opacity:1;stroke:none"
         rx="12.400507" />
      <path
         id="path3071"
         d="m 489.922,1007.6316 c -1.29175,-1.2917 -10.46546,-2.0642 -10.24565,-81.52166 0,0 0.25223,-68.7257 9.79817,-80.03941 12.19759,-8.3085 81.34494,-7.32642 81.34494,-7.32642 74.28776,-0.21285 71.81068,6.33566 72.75439,7.47279 0.82884,0.99869 -0.88076,14.53611 7.41763,81.26487 l -2.55339,75.12773 -76.74914,6.5225 c -77.24612,0.138 -80.47711,-0.2107 -81.76695,-1.5004 z"
         style="fill:#adadad" />
      <path
         id="path3059"
         d="m 488.18228,1007.9357 c -14.57033,-11.89003 -14.14996,-154.33553 -1.02715,-162.8097 13.12281,-8.47417 152.99037,-12.80204 158.86879,0.93932 5.90541,13.80447 11.99856,153.47658 2.82842,160.09218 -9.17014,6.6156 -146.31299,13.4942 -160.67006,1.7782 z"
         style="fill:#949494" />
      <path
         id="path2894"
         d="m 648.74958,1001.1035 c -4.63944,2.9348 -0.18297,-7.76927 -7.91204,-27.33686 l -4.40896,-11.16208 0,-37.46288 c 0,-20.60458 -1.19806,-38.09918 0.625,-40.58788 1.82306,-2.4887 4.2962,-2.8103 6.26327,-5.26606 1.96708,-2.45576 1.75975,-6.92322 4.177,-8.14388 3.02955,72.29912 1.63611,98.29444 1.25573,129.95964 z"
         style="fill:#656565" />
      <path
         id="path2896"
         d="m 499.84679,1007.8266 c 0.86999,-0.3338 1.58179,-1.048 1.58179,-1.587 0,-0.539 2.95448,-4.4284 6.56551,-8.64301 3.61103,-4.21464 8.60255,-11.11213 11.09226,-15.32774 3.07066,-5.19929 5.28624,-7.85537 6.88792,-8.25736 1.29864,-0.32594 11.26962,-0.0842 22.15774,0.53729 20.45144,1.16728 58.60457,0.58322 70.11535,-1.07335 7.84992,-1.12972 12.3633,-4.33327 14.6906,-10.42723 1.54749,-4.05204 1.61733,-8.85884 0.83928,-57.7672 l -0.84866,-53.3474 -2.32884,-3.26509 c -2.3837,-3.342 -6.29232,-5.83568 -11.47807,-7.32293 -1.60807,-0.46119 -23.98842,-0.89385 -49.73413,-0.96147 l -46.81038,0.58417 -8.32429,1.83448 c -4.67483,1.03023 -12.01906,3.51915 -16.5349,4.71394 -14.94429,3.95396 -14.06737,-1.31136 -13.61655,81.75884 0.41087,75.70896 0.056,71.86316 7.07014,76.62936 3.77364,2.5643 5.81966,3.0175 8.67523,1.9217 z"
         style="fill:#adadad;fill-opacity:1" />
      <path
         id="path2898"
         d="m 610.19827,970.42077 c 11.89759,-1.10774 15.23754,-2.52987 18.88458,-8.04093 3.17413,-4.79643 3.06747,-1.99048 1.99354,-52.44624 -1.10469,-51.90115 -1.62894,-58.77237 -4.74168,-62.14824 -4.68823,-5.08453 -5.10087,-5.12477 -56.40613,-5.50036 -46.9462,-0.34369 -48.07677,-0.3063 -51.4966,1.70267 -1.92313,1.12973 -4.55843,3.60473 -5.85621,5.5 -2.19935,3.21191 -2.31953,4.09111 -1.76953,12.94593 0.32454,5.225 0.81265,28.3132 1.08468,51.30712 0.6502,54.95875 -0.36287,52.56316 23.40043,55.33485 24.22926,2.82603 53.37967,3.34952 74.90692,1.3452 z"
         style="fill:#ffffff" />
      <path
         id="path2966"
         d="m 593.07163,911.03473 c 13.96423,-4.23146 14,-4.24798 14,-6.46276 0,-2.35091 -0.48799,-2.54444 -14.24797,-5.65057 -14.46838,-3.26604 -16.77772,-3.2307 -18.19051,0.5122 l 0,3 -14.81214,0 c -12.52622,0 -15.14771,-0.40487 -15.41355,0 -0.29139,0.44378 -0.31866,5.42295 0,5.71066 0.36314,0.32788 7.95129,-0.32525 15.97863,0 l 14.24706,0 0,3.44035 c 1.28201,3.67758 4.70882,3.61051 18.43848,-0.54988 z"
         style="fill:#adadad" />
    </g>
  </g>
</svg>
