<?xml version="1.0" encoding="UTF-8" standalone="no"?>
<!-- Created with Inkscape (http://www.inkscape.org/) -->

<svg
   xmlns:dc="http://purl.org/dc/elements/1.1/"
   xmlns:cc="http://creativecommons.org/ns#"
   xmlns:rdf="http://www.w3.org/1999/02/22-rdf-syntax-ns#"
   xmlns:svg="http://www.w3.org/2000/svg"
   xmlns="http://www.w3.org/2000/svg"
   xmlns:sodipodi="http://sodipodi.sourceforge.net/DTD/sodipodi-0.dtd"
   xmlns:inkscape="http://www.inkscape.org/namespaces/inkscape"
   width="100"
   height="100"
   id="svg2"
   version="1.1"
   inkscape:version="0.47pre0 r21549"
   sodipodi:docname="sprite.svg"
   inkscape:output_extension="org.inkscape.output.svg.inkscape"
   inkscape:export-filename="/home/lrbabe/workspace/todosOverlay/image/sprite.png"
   inkscape:export-xdpi="90"
   inkscape:export-ydpi="90">
  <defs
     id="defs4">
    <inkscape:perspective
       sodipodi:type="inkscape:persp3d"
       inkscape:vp_x="0 : 526.18109 : 1"
       inkscape:vp_y="0 : 1000 : 0"
       inkscape:vp_z="744.09448 : 526.18109 : 1"
       inkscape:persp3d-origin="372.04724 : 350.78739 : 1"
       id="perspective10" />
    <filter
       color-interpolation-filters="sRGB"
       y="-0.25"
       x="-0.25"
       height="1.5"
       width="1.5"
       inkscape:label="Drop shadow"
       id="filter2957">
      <feGaussianBlur
         result="blur"
         stdDeviation="12.000000"
         in="SourceAlpha"
         id="feGaussianBlur2959" />
      <feColorMatrix
         values="1 0 0 0 0 0 1 0 0 0 0 0 1 0 0 0 0 0 0.500000 0 "
         type="matrix"
         result="bluralpha"
         id="feColorMatrix2961" />
      <feOffset
         result="offsetBlur"
         dy="-1.000000"
         dx="-1.000000"
         in="bluralpha"
         id="feOffset2963" />
      <feMerge
         id="feMerge2965">
        <feMergeNode
           in="offsetBlur"
           id="feMergeNode2967" />
        <feMergeNode
           in="SourceGraphic"
           id="feMergeNode2969" />
      </feMerge>
    </filter>
    <filter
       color-interpolation-filters="sRGB"
       y="-0.25"
       x="-0.25"
       height="1.5"
       width="1.5"
       inkscape:label="Drop shadow"
       id="filter3713">
      <feGaussianBlur
         result="blur"
         stdDeviation="2.000000"
         in="SourceAlpha"
         id="feGaussianBlur3715" />
      <feColorMatrix
         values="1 0 0 0 0 0 1 0 0 0 0 0 1 0 0 0 0 0 0.500000 0 "
         type="matrix"
         result="bluralpha"
         id="feColorMatrix3717" />
      <feOffset
         result="offsetBlur"
         dy="2.000000"
         dx="-2.000000"
         in="bluralpha"
         id="feOffset3719" />
      <feMerge
         id="feMerge3721">
        <feMergeNode
           in="offsetBlur"
           id="feMergeNode3723" />
        <feMergeNode
           in="SourceGraphic"
           id="feMergeNode3725" />
      </feMerge>
    </filter>
    <inkscape:perspective
       id="perspective2927"
       inkscape:persp3d-origin="30.353266 : 20.235511 : 1"
       inkscape:vp_z="60.706532 : 30.353266 : 1"
       inkscape:vp_y="0 : 1000 : 0"
       inkscape:vp_x="0 : 30.353266 : 1"
       sodipodi:type="inkscape:persp3d" />
    <inkscape:perspective
       sodipodi:type="inkscape:persp3d"
       inkscape:vp_x="0 : 526.18109 : 1"
       inkscape:vp_y="0 : 1000 : 0"
       inkscape:vp_z="744.09448 : 526.18109 : 1"
       inkscape:persp3d-origin="372.04724 : 350.78739 : 1"
       id="perspective10-6" />
    <inkscape:perspective
       id="perspective2884"
       inkscape:persp3d-origin="0.5 : 0.33333333 : 1"
       inkscape:vp_z="1 : 0.5 : 1"
       inkscape:vp_y="0 : 1000 : 0"
       inkscape:vp_x="0 : 0.5 : 1"
       sodipodi:type="inkscape:persp3d" />
    <inkscape:perspective
       id="perspective3039"
       inkscape:persp3d-origin="0.5 : 0.33333333 : 1"
       inkscape:vp_z="1 : 0.5 : 1"
       inkscape:vp_y="0 : 1000 : 0"
       inkscape:vp_x="0 : 0.5 : 1"
       sodipodi:type="inkscape:persp3d" />
    <inkscape:perspective
       sodipodi:type="inkscape:persp3d"
       inkscape:vp_x="0 : 0.5 : 1"
       inkscape:vp_y="0 : 1000 : 0"
       inkscape:vp_z="1 : 0.5 : 1"
       inkscape:persp3d-origin="0.5 : 0.33333333 : 1"
       id="perspective3004" />
    <inkscape:perspective
       id="perspective2934"
       inkscape:persp3d-origin="372.04724 : 350.78739 : 1"
       inkscape:vp_z="744.09448 : 526.18109 : 1"
       inkscape:vp_y="0 : 1000 : 0"
       inkscape:vp_x="0 : 526.18109 : 1"
       sodipodi:type="inkscape:persp3d" />
    <inkscape:path-effect
       is_visible="true"
       id="path-effect3786"
       effect="spiro" />
    <inkscape:path-effect
       is_visible="true"
       id="path-effect3792"
       effect="spiro" />
    <inkscape:path-effect
       is_visible="true"
       id="path-effect3796"
       effect="spiro" />
    <inkscape:path-effect
       is_visible="true"
       id="path-effect3800"
       effect="spiro" />
    <linearGradient
       id="linearGradient3900">
      <stop
         id="stop3902"
         offset="0"
         style="stop-color:#b0b0b0;stop-opacity:1;" />
      <stop
         id="stop3904"
         offset="1"
         style="stop-color:#666666;stop-opacity:1" />
    </linearGradient>
    <linearGradient
       id="linearGradient3908">
      <stop
         id="stop3910"
         offset="0"
         style="stop-color:#ffffff;stop-opacity:1;" />
      <stop
         id="stop3912"
         offset="1"
         style="stop-color:#ffffff;stop-opacity:0;" />
    </linearGradient>
    <linearGradient
       id="linearGradient3926">
      <stop
         id="stop3928"
         offset="0"
         style="stop-color:#a4a4a4;stop-opacity:1;" />
      <stop
         id="stop3930"
         offset="1"
         style="stop-color:#d2d2d2;stop-opacity:1;" />
    </linearGradient>
  </defs>
  <sodipodi:namedview
     id="base"
     pagecolor="#ffffff"
     bordercolor="#666666"
     borderopacity="1.0"
     inkscape:pageopacity="0.0"
     inkscape:pageshadow="2"
     inkscape:zoom="0.98994949"
     inkscape:cx="61.713823"
     inkscape:cy="31.13756"
     inkscape:document-units="px"
     inkscape:current-layer="layer1"
     showgrid="false"
     showborder="true"
     inkscape:window-width="1280"
     inkscape:window-height="776"
     inkscape:window-x="0"
     inkscape:window-y="24"
     inkscape:window-maximized="1" />
  <metadata
     id="metadata7">
    <rdf:RDF>
      <cc:Work
         rdf:about="">
        <dc:format>image/svg+xml</dc:format>
        <dc:type
           rdf:resource="http://purl.org/dc/dcmitype/StillImage" />
        <dc:title></dc:title>
      </cc:Work>
    </rdf:RDF>
  </metadata>
  <g
     inkscape:label="Layer 1"
     inkscape:groupmode="layer"
     id="layer1"
     transform="translate(-204.13621,-265.87266)">
    <g
       transform="matrix(0.86113539,0,0,0.86113539,-273.32195,-75.323405)"
       id="layer1-5"
       inkscape:label="Layer 1">
      <g
         inkscape:export-ydpi="90"
         inkscape:export-xdpi="90"
         transform="translate(-39.168267,-95.892703)"
         id="close">
        <path
           sodipodi:type="arc"
           style="fill:#9c0000;fill-opacity:1;stroke:#ffffff;stroke-width:2.55589652;stroke-miterlimit:4;stroke-opacity:1;stroke-dasharray:none;filter:url(#filter3713)"
           id="path2855"
           sodipodi:cx="776.42859"
           sodipodi:cy="98.14286"
           sodipodi:rx="12.142858"
           sodipodi:ry="12.142858"
           d="m 788.57145,98.14286 c 0,6.70632 -5.43655,12.14286 -12.14286,12.14286 -6.70632,0 -12.14286,-5.43654 -12.14286,-12.14286 0,-6.706315 5.43654,-12.142857 12.14286,-12.142857 6.70631,0 12.14286,5.436542 12.14286,12.142857 z"
           transform="matrix(1.3630336,0,0,1.3630336,-434.31931,445.43419)" />
        <path
           style="fill:#ffffff;fill-opacity:1;stroke:none"
           d="m 617.42316,587.1415 6.54357,-6.54356 6.56799,6.56799 1.39173,-1.39173 -6.56798,-6.56799 6.56798,-6.56799 -1.39173,-1.39173 -6.56799,6.56799 -6.54357,-6.54356 -1.39173,1.39172 6.54357,6.54357 -6.54357,6.54357 1.39173,1.39172 z"
           id="rect3729" />
      </g>
    </g>
    <g
       id="g3174"
       transform="translate(-271.84687,-628.91479)">
      <g
         transform="matrix(0.29420074,0,0,0.28833411,407.55315,599.99465)"
         id="g4561">
        <path
           style="fill:#ffffff"
           d="m 404.28125,711.21875 c -7.41079,-0.013 -16.40976,1.09427 -23,3.28125 -8.8966,2.9737 -15.53915,3.6106 -21.34375,10.4375 -5.367,9.7908 -2.73025,24.1486 -2.78125,33.5625 0.3166,35.6447 0.30275,71.2942 0.78125,106.9375 0.1278,9.8865 6.6762,17.1023 15,18.875 44.6958,0.1274 89.39975,0.0826 134.09375,0.3125 8.2584,0.1161 17.05155,-2.5847 19.46875,-10.4375 -0.0606,-42.2455 -0.4255,-84.5006 -0.875,-126.75 -0.8231,-9.2764 0.7003,-16.28055 -4.125,-22.40625 -7.4768,-8.2608 -19.0812,-8.7653 -28.1875,-13.0625 -28.6545,-0.2347 -57.31415,-0.4529 -85.96875,-0.6875 -0.98203,-0.0481 -2.00382,-0.0607 -3.0625,-0.0625 z"
           transform="translate(46.000019,311.14792)"
           id="path4412" />
        <path
           sodipodi:nodetypes="ccccccccccccccsssssssscccsc"
           style="fill:#adadad"
           d="m 404.28125,711.21875 c -7.41079,-0.013 -16.40976,1.09427 -23,3.28125 -8.8966,2.9737 -15.53915,3.6106 -21.34375,10.4375 -5.367,9.7908 -2.73025,24.1486 -2.78125,33.5625 0.3166,35.6447 0.30275,71.2942 0.78125,106.9375 0.1278,9.8865 6.6762,17.1023 15,18.875 44.6958,0.1274 89.39975,0.0826 134.09375,0.3125 8.2584,0.1161 17.05155,-2.5847 19.46875,-10.4375 -0.0606,-42.2455 -0.4255,-84.5006 -0.875,-126.75 -0.8231,-9.2764 0.7003,-16.28055 -4.125,-22.40625 -7.4768,-8.2608 -19.0812,-8.7653 -28.1875,-13.0625 -28.6545,-0.2347 -57.31415,-0.4529 -85.96875,-0.6875 -0.98203,-0.0481 -2.00382,-0.0607 -3.0625,-0.0625 z m 20.90625,2.8125 c 5.91938,0.0228 12.52325,0.0737 19.625,0.15625 44.5334,0.5177 47.4274,0.67355 50.8125,2.53125 7.4629,4.0955 7.2115,2.29595 8.5625,59.78125 1.148,48.8486 1.10655,51.706 -0.59375,55.5 -3.8056,8.4921 -7.5923,10.1059 -26.0625,11 -6.325,0.3063 -14.875,0.6924 -19,0.875 -10.23,0.4528 -38.68025,-1.0302 -52.71875,-2.75 -20.0465,-2.4559 -20.10285,-2.6093 -20.78125,-41.375 -0.2768,-15.8175 -0.7311,-39.4364 -1,-52.5 l -0.46875,-23.75 3.59375,-3.96875 c 1.9922,-2.2051 5.1035,-4.4138 7,-4.9375 1.5435,-0.42615 13.2731,-0.63082 31.03125,-0.5625 z"
           transform="translate(46.000019,311.14792)"
           id="path4414" />
        <path
           sodipodi:nodetypes="cccscccscccssssssssscccccccccccccc"
           style="fill:#949494"
           d="m 404.28125,711.21875 c -7.41079,-0.013 -16.40976,1.09427 -23,3.28125 -7.37597,2.46543 -13.20063,3.32447 -18.28125,7.4375 1.94227,-1.05133 4.47047,-1.45952 7.8125,-2.34375 4.5158,-1.1948 11.98515,-3.3423 16.59375,-4.75 l 8.375,-2.5625 46.8125,0.15625 c 25.7315,0.082 48.06405,0.5434 49.65625,1 5.1572,1.4791 9.08935,3.9767 11.46875,7.3125 l 2.3125,3.25 0.84375,53.34375 c 0.778,48.9084 0.735,53.72925 -0.8125,57.78125 -2.3273,6.094 -6.86885,9.27645 -14.71875,10.40625 -11.5108,1.6565 -49.64225,2.26105 -70.09375,1.09375 -10.8881,-0.6213 -20.85765,-0.85715 -22.15625,-0.53125 -1.6017,0.402 -3.83565,3.0507 -6.90625,8.25 -2.4897,4.2156 -7.48275,11.0979 -11.09375,15.3125 -3.611,4.2147 -6.5625,8.11725 -6.5625,8.65625 0,0.539 -0.6925,1.25995 -1.5625,1.59375 -2.8556,1.0958 -4.9139,0.6267 -8.6875,-1.9375 -4.24097,-2.88179 -5.76062,-2.68656 -6.40625,-19.125 0.026,2.19648 0.033,4.3973 0.0625,6.59375 0.1278,9.8865 6.6762,17.1023 15,18.875 44.6958,0.1274 89.39975,0.0826 134.09375,0.3125 8.2584,0.1161 17.05155,-2.5847 19.46875,-10.4375 -0.0606,-42.2455 -0.4255,-84.5006 -0.875,-126.75 -0.8231,-9.2764 0.7003,-16.28055 -4.125,-22.40625 -7.4768,-8.2608 -19.0812,-8.7653 -28.1875,-13.0625 -28.6545,-0.2347 -57.31415,-0.4529 -85.96875,-0.6875 -0.98203,-0.0481 -2.00382,-0.0607 -3.0625,-0.0625 z m -44.125,13.46875 c -0.0739,0.0846 -0.14516,0.16345 -0.21875,0.25 -4.58861,8.37082 -3.33337,20.05196 -2.90625,29.15625 0.13182,-17.80296 0.8437,-25.57608 3.125,-29.40625 z"
           transform="translate(46.000019,311.14792)"
           id="path4416" />
        <path
           sodipodi:nodetypes="ccccccccccssssssscscccscccssscccccccc"
           style="fill:#656565"
           d="m 404.28125,711.21875 c -7.41079,-0.013 -16.40976,1.09427 -23,3.28125 -2.22415,0.74343 -4.31818,1.32137 -6.28125,1.90625 1.47961,-0.37066 2.97554,-0.75305 4.53125,-1.125 l 13.5,-3.21875 L 439.5,711.75 c 7.04444,-0.0457 13.33135,-0.0678 19.0625,-0.0625 -17.07187,-0.13982 -34.14683,-0.26648 -51.21875,-0.40625 -0.98203,-0.0481 -2.00382,-0.0607 -3.0625,-0.0625 z m 74.15625,0.625 c 6.76352,0.13514 11.16698,0.36618 12.5625,0.65625 2.7769,0.5772 7.4476,2.50485 10.375,4.28125 2.9274,1.7763 8.3274,4.79375 12,6.71875 5.4541,2.8589 6.86885,4.1412 7.84375,7 1.4716,4.3154 1.6672,12.6628 0.3125,13.5 -0.55,0.34 -1,1.4171 -1,2.375 0,0.9579 -0.5625,2.9571 -1.25,4.4375 -1.0191,2.1943 -1.9196,2.6775 -4.875,2.6875 -3.2577,0.007 -3.6883,0.3167 -4.25,3.125 -0.3437,1.7188 -0.625,19.98915 -0.625,40.59375 l 0,37.46875 4.40625,11.15625 c 7.729,19.5676 8.57015,22.50045 7.90625,27.34375 -0.4831,3.5247 -1.318,4.9691 -4.0625,7.0625 l -3.4375,2.65625 -55.53125,-0.28125 c -37.0668,-0.1855 -56.32315,-0.6537 -57.90625,-1.375 -1.7262,-0.7865 -3.05225,-0.75095 -4.90625,0.0937 -3.1761,1.4471 -25.30785,1.5407 -29.03125,0.125 -0.3946,-0.15008 -0.78648,-0.24585 -1.15625,-0.34375 2.11459,1.53157 4.52381,2.63353 7.125,3.1875 44.6958,0.1274 89.39975,0.0826 134.09375,0.3125 8.2584,0.1161 17.05155,-2.5847 19.46875,-10.4375 -0.0606,-42.2455 -0.4255,-84.5006 -0.875,-126.75 -0.8231,-9.2764 0.7003,-16.28055 -4.125,-22.40625 -7.4768,-8.2608 -19.0812,-8.7653 -28.1875,-13.0625 -4.95805,-0.0406 -9.91695,-0.0844 -14.875,-0.125 z"
           transform="translate(46.000019,311.14792)"
           id="path4418" />
        <path
           style="fill:#282828"
           d="m 493.0625,711.96875 c 0.20005,0.0554 0.38758,0.0993 0.59375,0.15625 -0.1146,-0.0525 -0.22992,-0.10253 -0.34375,-0.15625 -0.0833,-6.8e-4 -0.16668,6.8e-4 -0.25,0 z m 32,23.09375 c 0.92118,22.31851 1.41994,135.94198 0.5,139.90625 -0.3115,1.34212 -0.90085,2.67396 -1.625,3.78125 1.11888,-1.2756 2.01577,-2.78633 2.5625,-4.5625 -0.0606,-42.2455 -0.4255,-84.5006 -0.875,-126.75 -0.41155,-4.6382 -0.23375,-8.69956 -0.5625,-12.375 z"
           id="path4420"
           transform="translate(46.000019,311.14792)" />
      </g>
      <path
         style="fill:#000000"
         d="m 553.58836,916.2543 c 4.07123,-1.23364 4.08163,-1.23845 4.08163,-1.88417 0,-0.68539 -0.14227,-0.74183 -4.1539,-1.6474 -4.21819,-0.95219 -4.89148,-0.9419 -5.30338,0.14933 l 0,0.87463 -4.31839,0 c -3.65195,0 -4.41624,-0.11804 -4.49373,0 -0.085,0.12939 -0.0929,1.58105 0,1.66493 0.10586,0.0956 2.31813,-0.0948 4.65848,0 l 4.15364,0 0,1.003 c 0.37379,1.07219 1.37286,1.05263 5.37565,-0.16032 z"
         id="path4593" />
    </g>
    <g
       id="g3183"
       transform="translate(33.335034,-628.91478)">
      <g
         transform="matrix(0.29282577,0,0,0.28800182,-43.863654,813.98541)"
         id="g4574">
        <path
           style="fill:#ffffff"
           d="m 861.70538,280.52738 c -26.25165,0.0597 -51.62073,0.31515 -77.4375,0.40625 -11.73842,-0.11508 -20.1737,0.0367 -29.5625,3.6875 -9.27755,3.48409 -18.50004,7.8498 -20.5,18.40625 l -1.125,136.40625 c 1.91716,5.96699 6.67478,12.37158 12.0625,14.28125 23.04951,0.91572 90.44501,0.0511 135.28125,0.0937 11.08569,0.88878 19.7716,-5.01078 21.8125,-14.96875 l 1.59375,-132.375 c -0.42282,-7.93587 -7.71033,-15.36952 -14.5,-18.8125 -8.6497,-4.36495 -16.52822,-6.13337 -27.625,-7.125 z"
           id="path4222" />
        <path
           style="fill:#adadad"
           d="m 861.70538,280.52738 c -26.25165,0.0597 -51.62073,0.31515 -77.4375,0.40625 -11.73842,-0.11508 -20.1737,0.0367 -29.5625,3.6875 -9.27755,3.48409 -18.50004,7.8498 -20.5,18.40625 l -1.125,136.40625 c 1.91716,5.96699 6.67478,12.37158 12.0625,14.28125 23.04951,0.91572 90.44501,0.051 135.28125,0.0937 11.08569,0.88878 19.7716,-5.01078 21.8125,-14.96875 l 1.59375,-132.375 c -0.42282,-7.93587 -7.71033,-15.36952 -14.5,-18.8125 -8.6497,-4.36495 -16.52822,-6.13337 -27.625,-7.125 z m -61.96875,2.28125 c 4.92475,-0.0186 10.4997,0 16.84375,0 44.7953,0 45.12288,0.0155 49.53125,2.25 2.58662,1.31108 5.26947,3.64546 6.40625,5.625 1.92516,3.35238 1.92963,4.08761 0.28125,55.28125 -1.55216,48.20503 -1.81008,52.16371 -3.6875,55.84375 -2.81846,5.52464 -5.20889,6.7716 -16.5625,8.5625 -11.85211,1.86952 -58.30127,2.73739 -74.9375,1.40625 -13.03982,-1.04338 -17.37174,-2.16272 -21.375,-5.53125 -5.37653,-4.52405 -5.43745,-5.02836 -3.6875,-58.1875 0.88274,-26.81567 1.83901,-50.23199 2.125,-52.03125 0.28599,-1.79926 1.91912,-4.84269 3.59375,-6.75 4.80785,-5.47583 6.99552,-6.33891 41.46875,-6.46875 z"
           id="path4220"
           sodipodi:nodetypes="ccccccccccccsssssssssssc" />
        <path
           style="fill:#949494"
           d="m 861.70538,280.52738 c -26.25165,0.0597 -51.62073,0.31515 -77.4375,0.40625 -11.73842,-0.11508 -20.1737,0.0367 -29.5625,3.6875 -9.27755,3.48409 -18.50004,7.8498 -20.5,18.40625 l -1.125,136.40625 c 1.91716,5.96699 6.67478,12.37158 12.0625,14.28125 23.04951,0.91572 90.44501,0.051 135.28125,0.0937 11.08569,0.88878 19.7716,-5.01078 21.8125,-14.96875 l 1.59375,-132.375 c -0.42282,-7.93587 -7.71033,-15.36952 -14.5,-18.8125 -8.6497,-4.36495 -16.52822,-6.13337 -27.625,-7.125 z m -28.9375,1.125 c 34.74837,-0.10266 35.84173,0.50415 42.375,5.15625 1.59263,1.13405 6.36257,2.74696 10.625,3.5625 15.7065,3.00515 15.81087,3.23749 14.96875,40.9375 -0.35628,15.95 -0.57104,38.675 -0.46875,50.5 0.2479,28.65568 0.29914,27.84907 -2.25,30.5625 -1.8655,1.98573 -1.98373,2.60157 -0.875,3.9375 0.82422,0.99313 1.46477,5.38131 1.71875,11.78125 0.34459,8.68293 0.10586,10.73458 -1.53125,13.6875 -2.45583,4.42968 -5.85731,6.94192 -10.25,7.59375 -3.28379,0.48729 -3.77371,0.13204 -8.96875,-6.125 -3.025,-3.64338 -6.51125,-8.03904 -7.75,-9.78125 -1.23875,-1.74222 -3.15125,-4.21578 -4.25,-5.5 -1.09875,-1.28422 -2,-2.91298 -2,-3.625 0,-0.71202 -2.0341,-2.94812 -4.5,-4.96875 l -4.46875,-3.6875 -14.28125,0.9375 c -13.9695,0.92856 -26.60582,0.83633 -55.75,-0.46875 -20.87852,-0.93494 -20.06442,-1.02807 -22.6875,2.25 -1.26928,1.58623 -2.31625,3.80625 -2.34375,4.90625 -0.087,3.47484 -2.37792,7.52647 -4.96875,8.8125 -1.82859,0.90768 -2.52065,2.07501 -2.59375,4.375 -0.055,1.72946 -0.83692,4.67293 -1.71875,6.53125 -0.88183,1.85832 -2.41808,4.08088 -3.40625,4.9375 -1.63306,1.41566 -2.18812,1.36886 -6.09375,-0.375 -6.27981,-2.80391 -6.60479,-4.72287 -3.09375,-16.96875 1.63053,-5.68699 4.4885,-14.8125 6.375,-20.3125 3.42606,-9.98851 3.42704,-10.02241 3.53125,-29.5 0.0573,-10.725 0.0943,-22.9875 0.0625,-27.25 l -0.0625,-7.75 -2.9375,0 c -1.85535,0 -3.48008,0.77146 -4.40625,2.09375 l -1.46875,2.09375 -1.15625,-2.15625 c -0.95185,-1.77855 -1.55365,-12.41935 -1.1875,-21.53125 0.0442,-1.1 -0.16251,-4.80957 -0.46875,-8.21875 -1.12608,-12.53551 2.49662,-24.28125 7.46875,-24.28125 0.82047,0 4.73934,-2.051 8.71875,-4.53125 12.13524,-7.56355 9.65834,-7.25197 63.03125,-7.53125 6.45239,-0.0338 12.09845,-0.0791 17.0625,-0.0937 z m 45.71875,77 c -0.59118,0.10145 -1.40938,1.34107 -1.4375,2.90625 -0.0272,1.5125 -0.62627,9.6394 -1.34375,18.0625 -1.80149,21.14937 -1.17685,23.77076 7.8125,32.75 2.79744,2.7943 5.43125,5.1568 5.84375,5.25 1.29188,0.2919 0.8162,-2.65183 -0.5,-3.09375 -0.99924,-0.33549 -1.00323,-0.88311 0,-2.8125 0.69026,-1.3275 1.44847,-5.70642 1.6875,-9.71875 0.36234,-6.08197 0.0954,-7.86535 -1.625,-10.78125 -1.13498,-1.92365 -1.78261,-3.77989 -1.4375,-4.125 0.34511,-0.34511 -0.0407,-1.64946 -0.84375,-2.875 -0.80301,-1.22555 -1.63002,-4.44603 -1.84375,-7.15625 -0.21374,-2.71021 -1.57107,-7.44467 -3.03125,-10.53125 -1.46019,-3.08658 -2.65625,-6.0722 -2.65625,-6.65625 0,-0.92521 -0.27029,-1.27962 -0.625,-1.21875 z"
           id="path4218"
           sodipodi:nodetypes="ccccccccccccssssssssssssscccsssssssssssccccccsssssccsssssssssssssc" />
        <path
           style="fill:#656565"
           d="m 862.89288,280.65238 c 0.4426,0.34297 1.76783,0.75156 4.25,1.5 3.01416,0.90885 9.74375,2.39478 14.96875,3.28125 1.49381,0.25344 2.89255,0.50489 4.21875,0.78125 -7.21518,-3.19821 -14.23996,-4.67427 -23.4375,-5.5625 z m -97.125,1.0625 c -3.70963,0.55014 -7.31773,1.45009 -11.0625,2.90625 -4.85438,1.82301 -9.67058,3.89916 -13.46875,6.96875 1.6524,-1.02416 3.71716,-2.03695 5.59375,-2.71875 3.18453,-1.15699 9.56436,-3.52869 14.1875,-5.28125 2.099,-0.7957 3.63306,-1.40675 4.75,-1.875 z m -30.875,18.75 c -0.27327,0.81778 -0.51598,1.65717 -0.6875,2.5625 l -0.15625,19.375 c 0.21793,-7.68695 0.45517,-13.92295 0.65625,-16.09375 0.32979,-3.56037 0.41732,-5.23609 0.1875,-5.84375 z m 167.4375,0.21875 -0.15625,49.4375 c -0.26043,75.44285 -0.62574,87.92885 -2.65625,91.9375 -2.21091,4.36478 -4.31568,6.61586 -7.90625,8.53125 -2.66201,1.42005 -11.36437,1.63926 -76.875,1.875 -33.75664,0.12147 -62.24839,0.3605 -71.15625,0.5625 0.51702,0.27081 1.03153,0.4993 1.5625,0.6875 23.04951,0.91572 90.44501,0.051 135.28125,0.0937 11.08569,0.88878 19.7716,-5.01078 21.8125,-14.96875 l 1.59375,-132.375 c -0.10521,-1.97462 -0.65994,-3.92065 -1.5,-5.78125 z"
           id="path4216"
           sodipodi:nodetypes="csscccccssccccscccssscccccc" />
      </g>
      <path
         id="path4622"
         d="m 185.9959,916.2543 c -4.07122,-1.23364 -4.08163,-1.23845 -4.08163,-1.88417 0,-0.68539 0.14227,-0.74183 4.1539,-1.6474 4.21819,-0.95219 4.89149,-0.9419 5.30338,0.14933 l 0,0.87463 4.3184,0 c 3.65194,0 4.41623,-0.11804 4.49372,0 0.085,0.12939 0.0929,1.58105 0,1.66493 -0.10586,0.0956 -2.31813,-0.0948 -4.65848,0 l -4.15364,0 0,1.003 c -0.37379,1.07219 -1.37286,1.05263 -5.37565,-0.16032 z"
         style="fill:#000000" />
    </g>
  </g>
</svg>
